<svg width="198" height="144" viewBox="0 0 198 144" fill="none" xmlns="http://www.w3.org/2000/svg">
<path fill-rule="evenodd" clip-rule="evenodd" d="M18.5334 79.0879C10.8335 63.7964 9.14421 47.9271 15.1391 34.0526C29.2387 1.42047 80.5046 -7.82087 129.645 13.4115C178.785 34.6438 207.191 78.3095 193.091 110.942C178.991 143.574 127.726 152.815 78.5855 131.583C59.2716 123.238 43.1606 111.427 31.5745 98.1828C20.1386 100.533 10.0406 102.413 5.03555 102.413C-3.34669 102.413 5.67758 91.7983 18.5334 79.0879Z" fill="#151F3F"/>
<path d="M15.1391 34.0526L14.2211 33.6559L15.1391 34.0526ZM18.5334 79.0879L19.4266 78.6381L19.7536 79.2877L19.2365 79.799L18.5334 79.0879ZM129.645 13.4115L129.248 14.3294L129.645 13.4115ZM193.091 110.942L192.173 110.545L193.091 110.942ZM78.5855 131.583L78.9822 130.665L78.5855 131.583ZM31.5745 98.1828L31.3733 97.2033L31.9437 97.0861L32.3272 97.5244L31.5745 98.1828ZM16.0571 34.4492C10.2093 47.9832 11.8221 63.5362 19.4266 78.6381L17.6402 79.5376C9.84485 64.0566 8.0791 47.871 14.2211 33.6559L16.0571 34.4492ZM129.248 14.3294C104.833 3.78034 79.9313 0.821213 59.4291 4.51699C38.9182 8.21434 22.9323 18.5373 16.0571 34.4492L14.2211 33.6559C21.4455 16.9358 38.1423 6.32198 59.0743 2.54872C80.015 -1.22612 105.316 1.81024 130.041 12.4935L129.248 14.3294ZM192.173 110.545C199.048 94.633 195.609 75.917 184.244 58.4469C172.884 40.9842 153.663 24.8785 129.248 14.3294L130.041 12.4935C154.767 23.1767 174.318 39.5201 185.921 57.3563C197.519 75.1851 201.233 94.6181 194.009 111.338L192.173 110.545ZM78.9822 130.665C103.397 141.214 128.299 144.173 148.801 140.477C169.312 136.78 185.298 126.457 192.173 110.545L194.009 111.338C186.785 128.058 170.088 138.672 149.156 142.445C128.215 146.22 102.914 143.184 78.1889 132.501L78.9822 130.665ZM32.3272 97.5244C43.8079 110.648 59.7939 122.374 78.9822 130.665L78.1889 132.501C58.7492 124.101 42.5133 112.206 30.8219 98.8412L32.3272 97.5244ZM5.03555 101.413C9.91426 101.413 19.8933 99.5621 31.3733 97.2033L31.7758 99.1623C20.3839 101.503 10.1669 103.413 5.03555 103.413V101.413ZM19.2365 79.799C12.8008 86.1619 7.40356 91.9255 4.65343 96.0698C3.96999 97.0997 3.47017 98.0003 3.15872 98.7625C2.84135 99.5391 2.75484 100.088 2.79443 100.446C2.82716 100.742 2.9416 100.923 3.19238 101.072C3.50079 101.256 4.06839 101.413 5.03555 101.413V103.413C3.90717 103.413 2.92314 103.239 2.17087 102.792C1.36096 102.311 0.905655 101.563 0.806534 100.666C0.714264 99.8304 0.933792 98.92 1.30734 98.0059C1.68681 97.0773 2.26277 96.0553 2.98697 94.9639C5.86737 90.6233 11.4102 84.7243 17.8303 78.3767L19.2365 79.799Z" fill="url(#paint0_linear_202_13407)"/>
<path d="M98.1991 44.4339C87.6881 38.7781 78.4386 40.7055 73.1013 50.6247C66.6571 62.601 70.9267 69.6587 88.2853 78.999L90.7354 75.1209C78.4491 68.5099 72.2188 63.8131 77.92 53.2175C82.3779 44.9327 89.465 44.9306 96.3126 48.6152C99.8069 50.4953 104.747 53.8077 102.38 59.2202C101.668 56.6933 99.6585 54.4854 96.303 52.7526C91.1852 50.1078 85.7558 49.2577 82.2684 55.739C78.7658 62.2485 82.406 66.4238 87.5086 69.0967C90.8772 70.8729 93.8552 71.3489 96.3712 70.5224L95.1278 72.8331L99.9747 75.4411L106.207 63.8593C110.528 55.8281 108.541 49.9986 98.1991 44.4339ZM91.0013 65.7797C86.9153 63.5811 85.495 61.2907 87.0871 58.3318C88.6792 55.373 91.3731 55.2963 95.4592 57.4949C99.348 59.5874 100.801 61.7499 99.603 64.4486L99.1026 65.3785C97.4952 67.8931 94.8901 67.8722 91.0013 65.7797ZM135.774 64.6519C125.263 58.9962 116.013 60.9235 110.676 70.8427C104.232 82.8191 108.501 89.8767 125.86 99.217L128.31 95.3389C116.024 88.728 109.793 84.0311 115.495 73.4356C119.953 65.1507 127.04 65.1486 133.887 68.8332C137.382 70.7134 142.322 74.0257 139.955 79.4382C139.243 76.9113 137.233 74.7034 133.878 72.9706C128.76 70.3258 123.33 69.4757 119.843 75.957C116.34 82.4665 119.981 86.6418 125.083 89.3148C128.452 91.0909 131.43 91.5669 133.946 90.7404L132.702 93.0511L137.549 95.6591L143.781 84.0773C148.103 76.0461 146.116 70.2166 135.774 64.6519ZM128.576 85.9977C124.49 83.7991 123.07 81.5087 124.662 78.5498C126.254 75.591 128.948 75.5143 133.034 77.7129C136.923 79.8054 138.375 81.9679 137.178 84.6666L136.677 85.5965C135.07 88.1111 132.465 88.0902 128.576 85.9977Z" fill="white"/>
<defs>
<linearGradient id="paint0_linear_202_13407" x1="189.925" y1="11.1621" x2="-18.2476" y2="63.8597" gradientUnits="userSpaceOnUse">
<stop stop-color="#313A65"/>
<stop offset="1" stop-color="#313A65" stop-opacity="0"/>
</linearGradient>
</defs>
</svg>
