<svg width="193" height="152" viewBox="0 0 193 152" fill="none" xmlns="http://www.w3.org/2000/svg">
<path fill-rule="evenodd" clip-rule="evenodd" d="M23.9152 71.0056C19.0891 56.3701 19.6775 42.0083 26.8282 30.4321C43.6462 3.20542 90.3953 1.69707 131.245 27.0631C172.095 52.429 191.577 95.0638 174.759 122.29C157.941 149.517 111.192 151.025 70.3421 125.659C54.2864 115.69 41.5318 103.052 32.9846 89.731C22.5183 90.3244 13.302 90.6751 8.85669 90.0184C1.41185 88.9187 10.8241 80.6445 23.9152 71.0056Z" fill="#151F3F"/>
<path d="M26.8282 30.4321L25.9774 29.9065L25.9774 29.9065L26.8282 30.4321ZM23.9152 71.0056L24.8649 70.6925L25.092 71.381L24.5081 71.8109L23.9152 71.0056ZM131.245 27.0631L130.718 27.9126L131.245 27.0631ZM174.759 122.29L175.61 122.816L174.759 122.29ZM70.3421 125.659L69.8145 126.509L70.3421 125.659ZM32.9846 89.731L32.928 88.7326L33.511 88.6996L33.8263 89.191L32.9846 89.731ZM27.679 30.9576C20.7226 42.2193 20.1051 56.258 24.8649 70.6925L22.9655 71.3188C18.0731 56.4822 18.6324 41.7974 25.9774 29.9065L27.679 30.9576ZM130.718 27.9126C110.437 15.319 88.7293 9.42235 70.057 10.0248C51.3764 10.6275 35.8569 17.7183 27.679 30.9576L25.9774 29.9065C34.6175 15.9192 50.8816 8.64245 69.9925 8.02584C89.1117 7.40897 111.204 13.4411 131.773 26.2135L130.718 27.9126ZM173.908 121.765C182.087 108.525 181.504 91.433 173.718 74.3946C165.936 57.3643 150.999 40.5061 130.718 27.9126L131.773 26.2135C152.342 38.986 167.57 56.1282 175.537 73.5634C183.5 90.9905 184.249 108.829 175.61 122.816L173.908 121.765ZM70.8696 124.81C91.1506 137.403 112.858 143.3 131.53 142.698C150.211 142.095 165.73 135.004 173.908 121.765L175.61 122.816C166.97 136.803 150.706 144.08 131.595 144.697C112.476 145.314 90.3835 139.281 69.8145 126.509L70.8696 124.81ZM33.8263 89.191C42.287 102.378 54.9306 114.913 70.8696 124.81L69.8145 126.509C53.6423 116.467 40.7765 103.727 32.143 90.271L33.8263 89.191ZM9.00283 89.0292C13.3228 89.6673 22.4167 89.3286 32.928 88.7326L33.0412 90.7294C22.6199 91.3202 13.2812 91.6829 8.71056 91.0077L9.00283 89.0292ZM24.5081 71.8109C17.9538 76.6368 12.4097 81.0586 9.42945 84.3818C8.68933 85.2071 8.1314 85.9387 7.75893 86.5694C7.37854 87.2135 7.23834 87.6746 7.22716 87.9762C7.2183 88.2158 7.28412 88.3616 7.46132 88.5061C7.69036 88.6929 8.15233 88.9035 9.00283 89.0292L8.71056 91.0077C7.69984 90.8584 6.82738 90.5699 6.1973 90.056C5.51539 89.4999 5.19739 88.7436 5.22854 87.9022C5.25738 87.1229 5.58103 86.3241 6.03683 85.5524C6.50057 84.7671 7.1512 83.9267 7.94049 83.0466C11.0779 79.5481 16.7855 75.0134 23.3223 70.2004L24.5081 71.8109Z" fill="url(#paint0_linear_202_13402)"/>
<path d="M96.2426 85.3778C102.144 79.9985 114.664 95.1056 122.971 85.3147C128.871 78.3605 124.438 70.5081 114.099 61.7354C103.896 53.0791 94.3742 49.0921 85.7567 59.249L93.992 66.2361C97.8738 61.661 102.015 63.3647 108.695 69.0321C114.597 74.0395 115.783 77.0923 113.959 79.2426C108.99 85.0988 97.3471 68.2172 88.4191 78.74L96.2426 85.3778ZM85.1973 82.5374L79.9957 88.6681L87.8193 95.3059L93.0208 89.1752L85.1973 82.5374Z" fill="white"/>
<defs>
<linearGradient id="paint0_linear_202_13402" x1="185.081" y1="32.9675" x2="-6.77785" y2="52.3164" gradientUnits="userSpaceOnUse">
<stop stop-color="#313A65"/>
<stop offset="1" stop-color="#313A65" stop-opacity="0"/>
</linearGradient>
</defs>
</svg>
