<svg width="463" height="378" viewBox="0 0 463 378" fill="none" xmlns="http://www.w3.org/2000/svg">
<circle cx="231.687" cy="231.88" r="135.897" transform="rotate(-12.5051 231.687 231.88)" fill="url(#paint0_linear_204_14105)" stroke="url(#paint1_linear_204_14105)" stroke-width="2.17533"/>
<path d="M120.531 235.624L112.69 236.244L113.152 242.086L120.994 241.466C122.656 241.334 124.21 241.822 124.482 245.26C124.754 248.697 123.319 249.421 121.633 249.555L113.792 250.175L114.254 256.017L122.096 255.397C127.578 254.963 129.972 251.789 129.425 244.869C128.879 237.971 125.991 235.192 120.531 235.624Z" fill="black"/>
<path d="M113.418 226.308L113.036 232.156L128.779 233.186L129.162 227.339L113.418 226.308Z" fill="black"/>
<path d="M115.174 210.822L114.192 216.371L132.481 225.557L133.462 220.008L115.174 210.822Z" fill="black"/>
<path d="M130.814 188.994L123.424 186.299L121.417 191.805L128.807 194.499C130.374 195.071 131.584 196.16 130.403 199.399C129.222 202.639 127.616 202.701 126.028 202.122L118.637 199.428L116.63 204.934L124.02 207.628C129.187 209.512 132.684 207.62 135.062 201.098C137.432 194.597 135.96 190.87 130.814 188.994Z" fill="black"/>
<path d="M138.295 190.541L142.448 184.101L140.809 178.324L146.747 177.433L150.9 170.993L140.227 172.988L137.64 162.443L133.488 168.883L135.126 174.66L129.188 175.551L125.035 181.991L135.708 179.997L138.295 190.541Z" fill="black"/>
<path d="M157.188 142.959L148.151 150.421L158.196 162.587L167.234 155.125C170.171 152.699 171.327 148.471 167.911 144.335C164.496 140.198 160.125 140.534 157.188 142.959ZM162.686 152.449L159.558 155.032L155.826 150.514L158.955 147.931C159.928 147.127 161.527 145.807 163.393 148.066C165.258 150.325 163.659 151.646 162.686 152.449Z" fill="black"/>
<path d="M183.897 131.249L181.743 127.289L167.09 135.256L174.627 149.117L189.28 141.149L187.127 137.189L177.622 142.357L176.922 141.07L186.427 135.902L184.596 132.536L175.092 137.704L174.392 136.417L183.897 131.249Z" fill="black"/>
<path d="M189.803 134.457C191.196 138.934 194.968 138.916 201.144 136.993C207.321 135.07 210.435 132.944 209.142 128.791C207.916 124.852 204.109 125.589 198.096 127.202C194.785 128.091 194.253 128.28 194.072 127.699C193.891 127.118 194.389 126.821 197.015 126.004C199.748 125.153 201.093 124.923 201.34 125.719L206.936 123.977C205.736 120.125 201.98 119.737 196.105 121.566C190.166 123.415 187.358 125.847 188.39 129.161C189.482 132.669 192.434 132.977 199.302 131.075C202.865 130.084 203.386 130.016 203.587 130.662C203.762 131.221 203.334 131.59 200.019 132.622C196.469 133.728 195.626 133.447 195.398 132.715L189.803 134.457Z" fill="black"/>
<path d="M215.794 117.224L210.007 118.144L212.483 133.725L218.271 132.805L215.794 117.224Z" fill="black"/>
<path d="M229.354 126.403L233.591 126.336C233.382 127.399 232.012 127.736 229.759 127.771C226.311 127.826 225.675 126.123 225.645 124.207C225.615 122.314 226.178 120.84 229.648 120.785C232.127 120.746 233.288 121.472 233.527 122.279L239.521 122.185C239.205 117.884 235.88 115.728 229.57 115.827C223.08 115.93 219.695 118.598 219.782 124.074C219.869 129.573 223.336 132.156 229.15 132.064C232.463 132.012 234.521 131.032 235.826 129.456L236.29 131.726L239.671 131.672L239.535 123.086L229.304 123.248L229.354 126.403Z" fill="black"/>
<path d="M259.156 118.92L257.302 128.042L252.486 117.564L244.976 116.037L241.833 131.498L247.576 132.666L249.43 123.544L254.246 134.022L261.756 135.549L264.899 120.088L259.156 118.92Z" fill="black"/>
<path d="M284.078 132.295L285.836 128.144L270.477 121.64L264.325 136.169L279.684 142.672L281.441 138.521L271.479 134.303L272.05 132.954L282.013 137.172L283.507 133.644L273.544 129.425L274.116 128.076L284.078 132.295Z" fill="black"/>
<path d="M302.877 145.791C304.848 142.879 304.228 139.411 301.26 137.403L290.993 130.456L282.151 143.523L287.004 146.807L289.076 143.745L291.932 145.678L291.671 149.965L297.421 153.855L297.645 148.537C299.651 148.669 301.589 147.695 302.877 145.791ZM293.067 137.847L297.547 140.878C298.033 141.206 298.63 141.611 298.024 142.507C297.418 143.403 296.82 142.999 296.335 142.67L291.855 139.639L293.067 137.847Z" fill="black"/>
<path d="M303.773 151.434C300.408 154.698 302.126 158.056 306.629 162.699C311.133 167.343 314.436 169.163 317.559 166.134C320.52 163.263 318.144 160.198 313.991 155.56C311.703 153.006 311.295 152.617 311.731 152.194C312.168 151.77 312.658 152.08 314.572 154.054C316.565 156.109 317.377 157.205 316.778 157.786L320.858 161.993C323.754 159.184 322.406 155.656 318.122 151.239C313.791 146.774 310.354 145.366 307.862 147.783C305.225 150.341 306.282 153.114 311.079 158.384C313.571 161.116 313.868 161.551 313.382 162.022C312.962 162.43 312.439 162.214 310.022 159.723C307.433 157.053 307.303 156.174 307.853 155.641L303.773 151.434Z" fill="black"/>
<path d="M197.227 188.665L230.123 215.805L272.412 210.292L245.272 243.188L250.785 285.477L217.889 258.337L175.6 263.85L202.74 230.954L197.227 188.665Z" fill="black"/>
<path d="M279.084 235.338L293.289 247.057L311.55 244.676L299.83 258.882L302.211 277.143L288.006 265.423L269.745 267.804L281.465 253.599L279.084 235.338Z" fill="black"/>
<defs>
<linearGradient id="paint0_linear_204_14105" x1="231.687" y1="94.8949" x2="231.687" y2="368.864" gradientUnits="userSpaceOnUse">
<stop stop-color="#FFE34E"/>
<stop offset="1" stop-color="#FBC53C"/>
</linearGradient>
<linearGradient id="paint1_linear_204_14105" x1="374.322" y1="166.8" x2="121.986" y2="319.351" gradientUnits="userSpaceOnUse">
<stop stop-color="#FCC93E"/>
<stop offset="0.932292" stop-color="#FFE34E"/>
</linearGradient>
</defs>
</svg>
