<svg width="196" height="194" viewBox="0 0 196 194" fill="none" xmlns="http://www.w3.org/2000/svg">
<circle cx="99.7198" cy="102.297" r="72.0854" transform="rotate(16.4471 99.7198 102.297)" fill="url(#paint0_linear_204_14055)" stroke="url(#paint1_linear_204_14055)" stroke-width="1.15389"/>
<path d="M81.3542 122.173L82.0452 123.003L82.3511 121.967L85.1917 112.344L85.2872 112.021L85.0521 111.779L78.9037 105.453L74.4667 100.684L80.8003 99.03L89.3747 97.1242L89.7066 97.0505L89.8029 96.7244L92.6435 87.1019L92.9494 86.0658L91.9182 86.3878L67.8568 93.9015L67.5627 93.9933L67.4754 94.2889L65.1212 102.264L65.034 102.559L65.2311 102.796L81.3542 122.173ZM85.6519 127.659L85.3766 128.263L86.0136 128.452L90.7868 129.861L91.2675 130.003L91.4752 129.546L110.644 87.4646L110.919 86.8602L110.282 86.6721L105.509 85.263L105.029 85.1211L104.821 85.5772L85.6519 127.659ZM104.066 128.377L103.761 129.414L104.792 129.092L128.853 121.578L129.147 121.486L129.234 121.19L131.589 113.216L131.676 112.92L131.479 112.683L115.356 93.3068L114.665 92.4764L114.359 93.5125L111.518 103.135L111.422 103.461L111.661 103.703L117.825 109.96L122.245 114.789L115.93 116.383L107.331 118.356L107.003 118.431L106.907 118.755L104.066 128.377Z" fill="black" stroke="black" stroke-width="1.15389"/>
<path d="M39.6975 95.2679L37.1472 95.1153L36.6338 103.694L44.7485 104.179L44.9288 101.165L42.7842 101.037L43.0756 96.1681L40.5253 96.0155L40.2339 100.884L39.3645 100.832L39.6975 95.2679Z" fill="black"/>
<path d="M42.9186 83.4286C41.1661 82.9697 39.5872 83.8648 39.1194 85.651L37.5015 91.8299L45.3655 93.8891L46.1303 90.9682L44.2879 90.4858L44.738 88.7669L46.8658 88.1596L47.7718 84.6995L45.149 85.5012C44.8699 84.5038 44.0645 83.7287 42.9186 83.4286ZM40.7379 89.5562L41.4439 86.8599C41.5204 86.5678 41.6145 86.2083 42.1538 86.3495C42.693 86.4907 42.5989 86.8502 42.5224 87.1423L41.8164 89.8386L40.7379 89.5562Z" fill="black"/>
<path d="M50.5505 78.6083C52.132 75.413 51.5889 73.4209 49.0597 72.1692C46.5409 70.9226 44.6381 71.7042 43.0567 74.8995C41.4701 78.1052 41.9975 80.0766 44.5267 81.3283C47.0663 82.5852 48.964 81.814 50.5505 78.6083ZM48.2608 77.4751C47.4726 79.0675 46.6466 79.0085 45.866 78.6222C45.0958 78.241 44.5532 77.6356 45.3465 76.0327C46.1398 74.4299 46.9606 74.4992 47.7204 74.8753C48.4906 75.2565 49.0489 75.8826 48.2608 77.4751Z" fill="black"/>
<path d="M51.4712 62.0815L55.2184 65.0751L49.2821 64.8215L46.8176 67.9064L53.1688 72.9804L55.0534 70.6214L51.3062 67.6277L57.2425 67.8813L59.707 64.7964L53.3558 59.7224L51.4712 62.0815Z" fill="black"/>
<path d="M63.4605 50.8663L55.7162 57.1726L57.3295 59.1538L60.031 56.9539L63.5508 61.2763L65.8921 59.3697L62.3723 55.0473L65.0738 52.8474L63.4605 50.8663Z" fill="black"/>
<path d="M67.512 51.6941L68.5841 53.7545L76.8257 49.4663L75.7537 47.4059L67.512 51.6941Z" fill="black"/>
<path d="M86.2822 43.2145L85.6271 40.9862L77.3823 43.4098L79.6749 51.209L87.9198 48.7853L87.2647 46.557L81.9167 48.1291L81.7038 47.4049L87.0519 45.8328L86.4951 43.9387L81.1471 45.5108L80.9342 44.7866L86.2822 43.2145Z" fill="black"/>
<path d="M96.0756 39.5608L96.4631 44.3413L92.5799 39.8441L88.6444 40.1631L89.3011 48.2657L92.3106 48.0218L91.9231 43.2412L95.8063 47.7385L99.7418 47.4195L99.0851 39.3169L96.0756 39.5608Z" fill="black"/>
<path d="M108.585 40.0728L102.599 39.2738L101.523 47.3315L107.509 48.1305C109.454 48.3901 111.457 47.3452 111.822 44.6056C112.188 41.866 110.53 40.3324 108.585 40.0728ZM106.926 45.4751L104.854 45.1986L105.254 42.2057L107.326 42.4823C107.97 42.5683 109.029 42.7097 108.83 44.2061C108.63 45.7025 107.571 45.5612 106.926 45.4751Z" fill="black"/>
<path d="M126.118 45.1795L120.608 42.7093L117.283 50.1272L122.793 52.5974C124.584 53.4002 126.801 52.9687 127.931 50.4466C129.062 47.9245 127.909 45.9823 126.118 45.1795ZM122.99 49.886L121.083 49.031L122.318 46.2757L124.225 47.1308C124.819 47.3968 125.794 47.8338 125.176 49.2115C124.559 50.5891 123.584 50.1521 122.99 49.886Z" fill="black"/>
<path d="M137.997 55.0943L139.343 53.2015L132.34 48.2213L127.629 54.8462L134.632 59.8264L135.978 57.9336L131.436 54.7032L131.873 54.088L136.416 57.3184L137.56 55.7095L133.017 52.4791L133.455 51.8639L137.997 55.0943Z" fill="black"/>
<path d="M147.094 60.6983L141.114 63.1359L143.978 57.3479L141.716 54.9159L138.057 62.9183L141.11 66.2007L149.356 63.1304L147.094 60.6983Z" fill="black"/>
<path d="M153.675 74.1131L155.661 72.9086L151.204 65.5607L144.254 69.7763L148.71 77.1242L150.696 75.9198L147.805 71.1536L148.451 70.7621L151.342 75.5283L153.03 74.5045L150.139 69.7383L150.784 69.3469L153.675 74.1131Z" fill="black"/>
<path d="M152.926 80.2905L158.137 78.311L157.065 75.4884L149.466 78.3752L152.435 86.1917L154.823 85.2844L152.926 80.2905Z" fill="black"/>
<path d="M153.787 92.5166C154.393 96.0299 156.006 97.3188 158.787 96.8388C161.557 96.3608 162.633 94.6076 162.027 91.0943C161.418 87.5696 159.83 86.2882 157.049 86.7682C154.257 87.2502 153.179 88.9919 153.787 92.5166ZM156.305 92.082C156.002 90.3311 156.704 89.8918 157.563 89.7436C158.409 89.5974 159.205 89.7666 159.509 91.5289C159.813 93.2913 159.109 93.7192 158.274 93.8634C157.427 94.0096 156.607 93.833 156.305 92.082Z" fill="black"/>
<path d="M162.875 105.594L163.111 99.2114L154.987 98.9121L154.876 101.929L156.779 102L156.655 105.365C156.587 107.21 157.84 108.523 159.651 108.59C161.461 108.657 162.807 107.44 162.875 105.594ZM159.23 104.879L159.332 102.094L160.446 102.135L160.344 104.92C160.333 105.222 160.319 105.593 159.762 105.573C159.205 105.552 159.218 105.181 159.23 104.879Z" fill="black"/>
<path d="M158.148 120.02L160.408 120.557L162.392 112.195L154.482 110.318L152.498 118.68L154.758 119.216L156.045 113.792L156.779 113.967L155.493 119.39L157.414 119.846L158.7 114.422L159.435 114.597L158.148 120.02Z" fill="black"/>
<path d="M152.867 130.854C154.518 131.601 156.225 130.985 156.986 129.303L159.621 123.484L152.216 120.131L150.971 122.881L152.705 123.667L151.972 125.285L149.773 125.526L148.297 128.784L151.018 128.435C151.125 129.465 151.788 130.365 152.867 130.854ZM156.048 125.181L154.899 127.72C154.774 127.995 154.621 128.333 154.113 128.103C153.605 127.873 153.758 127.535 153.883 127.26L155.033 124.721L156.048 125.181Z" fill="black"/>
<path d="M150.033 131.86C148.08 130.439 146.527 131.606 144.565 134.3C142.603 136.995 141.969 138.832 143.781 140.151C145.499 141.402 146.846 139.926 148.836 137.41C149.932 136.024 150.093 135.783 150.347 135.967C150.6 136.152 150.486 136.428 149.652 137.573C148.784 138.765 148.298 139.274 147.951 139.021L146.174 141.462C147.854 142.686 149.526 141.691 151.393 139.128C153.279 136.537 153.692 134.668 152.246 133.615C150.716 132.501 149.401 133.282 147.147 136.18C145.979 137.685 145.784 137.874 145.502 137.669C145.258 137.491 145.321 137.207 146.374 135.761C147.502 134.212 147.937 134.069 148.256 134.301L150.033 131.86Z" fill="black"/>
<defs>
<linearGradient id="paint0_linear_204_14055" x1="99.7198" y1="29.6346" x2="99.7198" y2="174.959" gradientUnits="userSpaceOnUse">
<stop stop-color="#9FA6FF"/>
<stop offset="1" stop-color="#7A84FF"/>
</linearGradient>
<linearGradient id="paint1_linear_204_14055" x1="175.379" y1="67.7758" x2="41.5296" y2="148.696" gradientUnits="userSpaceOnUse">
<stop stop-color="#7E87FF"/>
<stop offset="0.932292" stop-color="#9DA4FF"/>
</linearGradient>
</defs>
</svg>
