<svg width="169" height="61" viewBox="0 0 169 61" fill="none" xmlns="http://www.w3.org/2000/svg">
<path d="M49.0587 51.2571H38.8667L41.8827 39.1931H10.6307L13.1267 29.2091L23.3187 17.1451H35.1227L24.9307 29.2091H44.3787L47.3947 17.1451H57.5867L49.0587 51.2571ZM84.686 27.0771H69.242L71.738 17.1451H112.766L110.27 27.0771H94.826L88.794 51.2571H78.654L84.686 27.0771ZM159.843 51.2571H149.651L152.667 39.2451H131.607L128.591 51.2571H118.399L126.927 17.1451H137.119L134.051 29.2611H155.111L158.179 17.1451H168.371L159.843 51.2571Z" fill="#9FA6FF"/>
<path d="M43.4303 47H33.2383L36.2543 34.936H5.00226L7.49826 24.952L17.6903 12.888H29.4943L19.3023 24.952H38.7503L41.7663 12.888H51.9583L43.4303 47ZM79.0576 22.82H63.6136L66.1096 12.888H107.138L104.642 22.82H89.1976L83.1656 47H73.0256L79.0576 22.82ZM154.215 47H144.023L147.039 34.988H125.979L122.963 47H112.771L121.299 12.888H131.491L128.423 25.004H149.483L152.551 12.888H162.743L154.215 47Z" fill="#55FFAD"/>
<path d="M45.1158 48.6287H34.9238L37.9398 36.5647H6.6878L9.1838 26.5807L19.3758 14.5167H31.1798L20.9878 26.5807H40.4358L43.4518 14.5167H53.6438L45.1158 48.6287ZM80.7431 24.4487H65.2991L67.7951 14.5167H108.823L106.327 24.4487H90.8831L84.8511 48.6287H74.7111L80.7431 24.4487ZM155.9 48.6287H145.708L148.724 36.6167H127.664L124.648 48.6287H114.456L122.984 14.5167H133.176L130.108 26.6327H151.168L154.236 14.5167H164.428L155.9 48.6287Z" fill="white"/>
</svg>
