<svg width="282" height="36" viewBox="0 0 282 36" fill="none" xmlns="http://www.w3.org/2000/svg">
<path d="M40.4817 1.39682H42.4817V-0.603176H40.4817V1.39682ZM15.9057 1.39682V-0.603176H13.9057V1.39682H15.9057ZM15.9057 8.64482H13.9057V10.6448H15.9057V8.64482ZM31.8417 8.64482H33.8417V6.64482H31.8417V8.64482ZM8.80166 18.1488H10.8017V16.1488H8.80166V18.1488ZM0.161656 18.1488V16.1488H-1.83834V18.1488H0.161656ZM40.4817 -0.603176L15.9057 -0.603176V3.39682H40.4817V-0.603176ZM13.9057 1.39682V8.64482H17.9057V1.39682H13.9057ZM15.9057 10.6448H31.8417V6.64482H15.9057V10.6448ZM29.8417 8.64482V18.1488H33.8417V8.64482H29.8417ZM29.8417 18.1488C29.8417 20.3636 29.5142 22.2814 28.3741 23.6606C27.2943 24.9668 25.1039 26.2288 20.3217 26.2288V30.2288C25.7634 30.2288 29.333 28.7788 31.4572 26.2091C33.5211 23.7123 33.8417 20.59 33.8417 18.1488H29.8417ZM20.3217 26.2288C15.5337 26.2288 13.3447 24.9757 12.2672 23.6762C11.1303 22.3051 10.8017 20.391 10.8017 18.1488H6.80166C6.80166 20.6107 7.121 23.7365 9.18808 26.2294C11.3146 28.794 14.8856 30.2288 20.3217 30.2288V26.2288ZM8.80166 16.1488H0.161656V20.1488H8.80166V16.1488ZM-1.83834 18.1488C-1.83834 24.3582 -0.148837 29.3419 3.74842 32.7167C7.58453 36.0386 13.1953 37.4768 20.3217 37.4768V33.4768C13.624 33.4768 9.15479 32.1071 6.36689 29.6929C3.64015 27.3317 2.16166 23.6515 2.16166 18.1488H-1.83834ZM20.3217 37.4768C27.4294 37.4768 33.0375 36.0243 36.8771 32.6986C40.7766 29.3209 42.4817 24.3406 42.4817 18.1488H38.4817C38.4817 23.6211 36.9947 27.3048 34.2582 29.6751C31.4618 32.0973 26.9899 33.4768 20.3217 33.4768V37.4768ZM42.4817 18.1488V1.39682H38.4817V18.1488H42.4817ZM68.2823 37.4768C75.8806 37.4768 81.7166 35.8879 85.6681 32.5088C89.6817 29.0766 91.4023 24.1033 91.4023 18.1488H87.4023C87.4023 23.3303 85.9309 27.021 83.0685 29.4688C80.1439 31.9697 75.42 33.4768 68.2823 33.4768V37.4768ZM91.4023 18.1488C91.4023 12.2155 89.6798 7.26442 85.6635 3.85088C81.7119 0.492384 75.8775 -1.08318 68.2823 -1.08318V2.91682C75.4231 2.91682 80.1486 4.41327 83.0731 6.89877C85.9327 9.32923 87.4023 12.9942 87.4023 18.1488H91.4023ZM68.2823 -1.08318C60.6681 -1.08318 54.8313 0.478266 50.8833 3.83268C46.869 7.24341 45.1623 12.1979 45.1623 18.1488H49.1623C49.1623 12.9638 50.6235 9.30224 53.4733 6.88097C56.3893 4.40338 61.1124 2.91682 68.2823 2.91682V-1.08318ZM45.1623 18.1488C45.1623 24.1209 46.8672 29.0976 50.8787 32.527C54.8266 35.9021 60.665 37.4768 68.2823 37.4768V33.4768C61.1155 33.4768 56.394 31.9796 53.4779 29.4866C50.6254 27.048 49.1623 23.3607 49.1623 18.1488H45.1623ZM68.2823 26.2288C63.9498 26.2288 61.4092 25.4483 59.9526 24.241C58.5891 23.1109 57.8023 21.284 57.8023 18.1488H53.8023C53.8023 21.9257 54.7674 25.1387 57.4 27.3207C59.9393 29.4253 63.6388 30.2288 68.2823 30.2288V26.2288ZM57.8023 18.1488C57.8023 15.0345 58.5786 13.2377 59.9286 12.1276C61.3775 10.9362 63.9177 10.1648 68.2823 10.1648V6.16483C63.6228 6.16483 59.9231 6.95348 57.388 9.03802C54.754 11.204 53.8023 14.3992 53.8023 18.1488H57.8023ZM68.2823 10.1648C72.6409 10.1648 75.1825 10.946 76.6332 12.1433C77.988 13.2614 78.7623 15.0624 78.7623 18.1488H82.7623C82.7623 14.4192 81.8086 11.2282 79.1793 9.05831C76.6461 6.96761 72.9477 6.16483 68.2823 6.16483V10.1648ZM78.7623 18.1488C78.7623 21.2561 77.9774 23.0872 76.6093 24.2253C75.1508 25.4385 72.6088 26.2288 68.2823 26.2288V30.2288C72.9317 30.2288 76.6298 29.4112 79.1673 27.3004C81.7951 25.1145 82.7623 21.9056 82.7623 18.1488H78.7623ZM105.029 1.39682H107.029V-0.603176H105.029V1.39682ZM96.3885 1.39682V-0.603176H94.3885V1.39682H96.3885ZM96.3885 34.9968H94.3885V36.9968H96.3885V34.9968ZM105.029 34.9968V36.9968H107.029V34.9968H105.029ZM105.029 -0.603176H96.3885V3.39682H105.029V-0.603176ZM94.3885 1.39682V34.9968H98.3885V1.39682H94.3885ZM96.3885 36.9968H105.029V32.9968H96.3885V36.9968ZM107.029 34.9968V1.39682H103.029V34.9968H107.029ZM147.353 1.39682V-0.603176H145.353V1.39682H147.353ZM147.353 26.6448L145.873 27.9899L149.353 31.8195V26.6448H147.353ZM124.409 1.39682L125.889 0.0517588L125.294 -0.603176H124.409V1.39682ZM112.697 1.39682V-0.603176H110.697V1.39682H112.697ZM112.697 34.9968H110.697V36.9968H112.697V34.9968ZM121.337 34.9968V36.9968H123.337V34.9968H121.337ZM121.337 9.79683L122.818 8.4519L119.337 4.62142V9.79683H121.337ZM144.233 34.9968L142.753 36.3418L143.348 36.9968H144.233V34.9968ZM155.993 34.9968V36.9968H157.993V34.9968H155.993ZM155.993 1.39682H157.993V-0.603176H155.993V1.39682ZM145.353 1.39682V26.6448H149.353V1.39682H145.353ZM148.833 25.2998L125.889 0.0517588L122.929 2.74189L145.873 27.9899L148.833 25.2998ZM124.409 -0.603176H112.697V3.39682H124.409V-0.603176ZM110.697 1.39682V34.9968H114.697V1.39682H110.697ZM112.697 36.9968H121.337V32.9968H112.697V36.9968ZM123.337 34.9968V9.79683H119.337V34.9968H123.337ZM119.857 11.1417L142.753 36.3418L145.714 33.6519L122.818 8.4519L119.857 11.1417ZM144.233 36.9968H155.993V32.9968H144.233V36.9968ZM157.993 34.9968V1.39682H153.993V34.9968H157.993ZM155.993 -0.603176H147.353V3.39682H155.993V-0.603176ZM231.992 1.39682H233.992V-0.603176H231.992V1.39682ZM223.352 1.39682V-0.603176L221.352 -0.603176V1.39682H223.352ZM198.392 1.39682H200.392V-0.603176H198.392V1.39682ZM189.752 1.39682V-0.603176H187.752V1.39682H189.752ZM233.992 18.1488V1.39682H229.992V18.1488H233.992ZM231.992 -0.603176H223.352V3.39682H231.992V-0.603176ZM221.352 1.39682V18.1488H225.352V1.39682H221.352ZM221.352 18.1488C221.352 20.3598 221.025 22.2404 219.811 23.6064C218.628 24.9376 216.188 26.2288 210.872 26.2288V30.2288C216.741 30.2288 220.54 28.8081 222.801 26.2633C225.032 23.7533 225.352 20.5938 225.352 18.1488H221.352ZM210.872 26.2288C205.551 26.2288 203.112 24.9469 201.931 23.6221C200.721 22.2641 200.392 20.3873 200.392 18.1488H196.392C196.392 20.6144 196.712 23.7776 198.945 26.2836C201.208 28.8227 205.009 30.2288 210.872 30.2288V26.2288ZM200.392 18.1488V1.39682H196.392V18.1488H200.392ZM198.392 -0.603176H189.752V3.39682L198.392 3.39682V-0.603176ZM187.752 1.39682V18.1488H191.752V1.39682L187.752 1.39682ZM187.752 18.1488C187.752 24.3606 189.444 29.3621 193.486 32.7395C197.447 36.0494 203.293 37.4768 210.872 37.4768V33.4768C203.667 33.4768 198.954 32.0962 196.051 29.6701C193.228 27.3116 191.752 23.649 191.752 18.1488H187.752ZM210.872 37.4768C218.433 37.4768 224.277 36.0354 228.241 32.7213C232.285 29.3409 233.992 24.3431 233.992 18.1488H229.992C229.992 23.6186 228.508 27.2847 225.676 29.6524C222.764 32.0862 218.048 33.4768 210.872 33.4768V37.4768ZM238.956 23.4288V21.4288H236.956V23.4288H238.956ZM260.412 14.7408L260.295 16.7374L260.303 16.7379L260.412 14.7408ZM271.788 12.3888H269.788V14.3888H271.788V12.3888ZM280.428 12.3888V14.3888H282.428V12.3888H280.428ZM260.412 21.1728L260.509 19.1752L260.504 19.1749L260.412 21.1728ZM247.596 23.4288H249.596V21.4288H247.596V23.4288ZM236.956 23.4288C236.956 26.1384 237.532 28.4898 238.755 30.4578C239.981 32.4294 241.763 33.8646 243.921 34.894C248.136 36.9041 254.033 37.4768 260.94 37.4768V33.4768C254.071 33.4768 248.977 32.8736 245.643 31.2836C244.027 30.5131 242.896 29.5422 242.152 28.3459C241.406 27.1458 240.956 25.5672 240.956 23.4288H236.956ZM260.94 37.4768C267.164 37.4768 272.765 37.0354 276.855 35.2808C278.944 34.3842 280.735 33.1063 281.991 31.2883C283.255 29.4609 283.868 27.2477 283.868 24.6768H279.868C279.868 26.594 279.419 27.9747 278.701 29.0138C277.976 30.0623 276.866 30.9235 275.277 31.6048C272.011 33.0063 267.148 33.4768 260.94 33.4768V37.4768ZM283.868 24.6768C283.868 22.2182 283.268 20.1223 281.966 18.4243C280.68 16.7477 278.861 15.6567 276.784 14.9106C272.74 13.4579 267.041 13.0982 260.521 12.7438L260.303 16.7379C267.031 17.1035 272.06 17.4637 275.432 18.6751C277.063 19.2609 278.124 19.988 278.791 20.8583C279.442 21.7073 279.868 22.8875 279.868 24.6768H283.868ZM260.529 12.7443C255.55 12.4514 252.864 12.1912 251.408 11.7564C250.714 11.5492 250.598 11.3823 250.621 11.4098C250.679 11.4809 250.604 11.486 250.604 11.0928H246.604C246.604 11.9957 246.781 13.0327 247.523 13.9409C248.23 14.8054 249.23 15.2804 250.264 15.5892C252.264 16.1865 255.482 16.4543 260.295 16.7374L260.529 12.7443ZM250.604 11.0928C250.604 10.9116 250.623 10.8111 250.636 10.7635C250.642 10.741 250.647 10.7304 250.648 10.7278C250.649 10.7257 250.649 10.7256 250.65 10.725C250.65 10.7243 250.656 10.717 250.671 10.7035C250.686 10.6895 250.714 10.6666 250.761 10.6368C250.858 10.5755 251.025 10.491 251.3 10.4004C252.516 9.99983 254.828 9.78082 259.116 9.78082V5.78082C254.909 5.78082 251.965 5.96982 250.048 6.60129C249.041 6.93302 248.107 7.45122 247.454 8.31964C246.786 9.20641 246.604 10.2009 246.604 11.0928H250.604ZM259.116 9.78082C263.631 9.78082 266.485 10.0228 268.179 10.594C268.986 10.8662 269.345 11.1554 269.512 11.363C269.654 11.5394 269.788 11.8165 269.788 12.3888H273.788C273.788 11.1132 273.46 9.89023 272.629 8.85619C271.822 7.85321 270.696 7.22147 269.457 6.80369C267.059 5.99489 263.577 5.78082 259.116 5.78082V9.78082ZM271.788 14.3888H280.428V10.3888H271.788V14.3888ZM282.428 12.3888C282.428 9.9934 281.87 7.85858 280.725 6.03097C279.583 4.20891 277.932 2.81167 275.93 1.76603C271.991 -0.290987 266.509 -1.08318 260.076 -1.08318V2.91682C266.315 2.91682 271.009 3.70863 274.078 5.31161C275.58 6.09598 276.641 7.04774 277.335 8.15518C278.026 9.25707 278.428 10.6322 278.428 12.3888H282.428ZM260.076 -1.08318C253.739 -1.08318 248.359 -0.502593 244.502 1.18451C242.54 2.0429 240.878 3.2277 239.712 4.85479C238.534 6.49971 237.964 8.45423 237.964 10.6608H241.964C241.964 9.17142 242.337 8.05993 242.964 7.18486C243.604 6.29195 244.612 5.50275 246.106 4.84914C249.161 3.51224 253.837 2.91682 260.076 2.91682V-1.08318ZM237.964 10.6608C237.964 12.8004 238.377 14.7404 239.386 16.4185C240.4 18.1054 241.913 19.3572 243.821 20.2881C247.516 22.0919 253.013 22.8353 260.32 23.1707L260.504 19.1749C253.171 18.8383 248.444 18.0938 245.575 16.6935C244.201 16.0225 243.347 15.2433 242.814 14.3576C242.277 13.4633 241.964 12.2892 241.964 10.6608H237.964ZM260.315 23.1705C265.853 23.4388 268.784 23.69 270.349 24.1437C271.093 24.3594 271.209 24.5381 271.187 24.5095C271.14 24.451 271.228 24.4785 271.228 24.9648H275.228C275.228 24.0592 275.076 22.9827 274.329 22.0347C273.606 21.1165 272.561 20.6202 271.463 20.3019C269.344 19.6876 265.867 19.4348 260.509 19.1752L260.315 23.1705ZM271.228 24.9648C271.228 25.2517 271.166 25.3169 271.139 25.3488C271.072 25.4273 270.831 25.6451 270.116 25.8741C268.63 26.3499 265.967 26.6128 261.42 26.6128V30.6128C265.945 30.6128 269.186 30.3718 271.336 29.6836C272.439 29.3305 273.449 28.8013 274.179 27.9483C274.948 27.0488 275.228 25.9979 275.228 24.9648H271.228ZM261.42 26.6128C255.95 26.6128 252.849 26.1905 251.16 25.5011C250.367 25.1777 250.033 24.8527 249.874 24.6174C249.718 24.3869 249.596 24.0443 249.596 23.4288H245.596C245.596 24.5894 245.834 25.7827 246.56 26.8573C247.283 27.9269 248.353 28.6759 249.648 29.2046C252.135 30.2192 255.946 30.6128 261.42 30.6128V26.6128ZM247.596 21.4288H238.956V25.4288H247.596V21.4288Z" fill="url(#paint0_linear_202_13366)"/>
<defs>
<linearGradient id="paint0_linear_202_13366" x1="141.098" y1="-8.00317" x2="141.098" y2="49.9968" gradientUnits="userSpaceOnUse">
<stop stop-color="#9FA6FF"/>
<stop offset="1" stop-color="#55FFAD"/>
</linearGradient>
</defs>
</svg>
